HIERARCHY
ROOT hips_JNT
{
  OFFSET 0 98.0000 0
  CHANNELS 6 Xposition Yposition Zposition Zrotation Xrotation Yrotation
  JOINT spine_JNT
  {
    OFFSET 0 8.0000 0
    CHANNELS 3 Xrotation Zrotation Yrotation
    JOINT spine1_JNT
    {
      OFFSET 0 12.0000 0
      CHANNELS 3 Xrotation Zrotation Yrotation
      JOINT spine2_JNT
      {
        OFFSET 0 12.0000 0
        CHANNELS 3 Xrotation Zrotation Yrotation
        JOINT neck_JNT
        {
          OFFSET 0 16.0000 0
          CHANNELS 3 Xrotation Zrotation Yrotation
          JOINT head_JNT
          {
            OFFSET 0 9.0000 1.0000
            CHANNELS 3 Xrotation Zrotation Yrotation
            End Site
            {
              OFFSET 0 18.0000 0
            }
          }
        }
        JOINT l_shoulder_JNT
        {
          OFFSET 3.0000 12.0000 0
          CHANNELS 3 Xrotation Zrotation Yrotation
          JOINT l_arm_JNT
          {
            OFFSET 13.0000 0 0
            CHANNELS 3 Xrotation Zrotation Yrotation
            JOINT l_forearm_JNT
            {
              OFFSET 27.0000 0 0
              CHANNELS 3 Xrotation Zrotation Yrotation
              JOINT l_hand_JNT
              {
                OFFSET 25.0000 0 0
                CHANNELS 3 Xrotation Zrotation Yrotation
                End Site
                {
                  OFFSET 8.0000 0 0
                }
              }
            }
          }
        }
        JOINT r_shoulder_JNT
        {
          OFFSET -3.0000 12.0000 0
          CHANNELS 3 Xrotation Zrotation Yrotation
          JOINT r_arm_JNT
          {
            OFFSET -13.0000 0 0
            CHANNELS 3 Xrotation Zrotation Yrotation
            JOINT r_forearm_JNT
            {
              OFFSET -27.0000 0 0
              CHANNELS 3 Xrotation Zrotation Yrotation
              JOINT r_hand_JNT
              {
                OFFSET -25.0000 0 0
                CHANNELS 3 Xrotation Zrotation Yrotation
                End Site
                {
                  OFFSET -8.0000 0 0
                }
              }
            }
          }
        }
      }
    }
  }
  JOINT l_upleg_JNT
  {
    OFFSET 9.0000 -6.0000 0
    CHANNELS 3 Xrotation Zrotation Yrotation
    JOINT l_leg_JNT
    {
      OFFSET 0 -43.0000 0
      CHANNELS 3 Xrotation Zrotation Yrotation
      JOINT l_foot_JNT
      {
        OFFSET 0 -41.0000 0
        CHANNELS 3 Xrotation Zrotation Yrotation
        JOINT l_toebase_JNT
        {
          OFFSET 0 -7.0000 12.0000
          CHANNELS 3 Xrotation Zrotation Yrotation
          End Site
          {
            OFFSET 0 0 5.0000
          }
        }
      }
    }
  }
  JOINT r_upleg_JNT
  {
    OFFSET -9.0000 -6.0000 0
    CHANNELS 3 Xrotation Zrotation Yrotation
    JOINT r_leg_JNT
    {
      OFFSET 0 -43.0000 0
      CHANNELS 3 Xrotation Zrotation Yrotation
      JOINT r_foot_JNT
      {
        OFFSET 0 -41.0000 0
        CHANNELS 3 Xrotation Zrotation Yrotation
        JOINT r_toebase_JNT
        {
          OFFSET 0 -7.0000 12.0000
          CHANNELS 3 Xrotation Zrotation Yrotation
          End Site
          {
            OFFSET 0 0 5.0000
          }
        }
      }
    }
  }
}
MOTION
Frames: 20
Frame Time: 0.0333333
0 98.0000 0 0 0 0 0 0 0 8.0000 0 0 0 0 0 5.0000 0 0 10.0000 0 0 0 0 0 0 -60.0000 0 0 0 -70.0000 0 15.0000 0 0 0 0 0 70.0000 0 0 0 75.0000 -15.0000 0 0 -20.0000 0 0 50.0000 0 0 10.0000 0 0 0 0 0 -20.0000 0 0 50.0000 0 0 0 0 0 0 0 0
0 98.6237 1.6667 0 0 1.0453 0 0 0 8.6272 0 0 0 0 -0.6272 4.9726 0 0 9.9306 -0.5413 3.0888 0 0 0 4.5153 -59.8970 -5.2156 0 0 -73.1359 2.1634 14.9077 0.5568 0 0 0 5.7234 69.8955 6.0921 0 0 74.9178 -14.9178 0 0 -22.6132 0 0 52.6132 0 0 9.9452 0 0 0 0 0 -17.3868 0 0 47.3868 0 0 0 0 0 0 0 0
0 99.2202 3.3333 0 0 2.0791 0 0 0 9.2475 0 0 0 0 -1.2475 4.8907 0 0 9.7247 -1.0576 6.1474 0 0 0 8.9178 -59.5944 -10.3114 0 0 -76.2374 4.2979 14.6327 1.0877 0 0 0 11.2671 69.5896 12.0006 0 0 74.6722 -14.6722 0 0 -25.1978 0 0 55.1978 0 0 9.7815 0 0 0 0 0 -14.8022 0 0 44.8022 0 0 0 0 0 0 0 0
0 99.7634 5.0000 0 0 3.0902 0 0 0 9.8541 0 0 0 0 -1.8541 4.7553 0 0 9.3886 -1.5253 9.1453 0 0 0 13.1068 -59.1112 -15.1797 0 0 -79.2705 6.3754 14.1812 1.5680 0 0 0 16.4776 69.1043 17.5684 0 0 74.2658 -14.2658 0 0 -27.7254 0 0 57.7254 0 0 9.5106 0 0 0 0 0 -12.2746 0 0 42.2746 0 0 0 0 0 0 0 0
0 100.2294 6.6667 0 0 4.0674 0 0 0 10.4404 0 0 0 0 -2.4404 4.5677 0 0 8.9324 -1.9231 12.0519 0 0 0 17.0026 -58.4762 -19.7339 0 0 -82.2021 8.3697 13.5627 1.9761 0 0 0 21.2447 68.4719 22.6814 0 0 73.7032 -13.7032 0 0 -30.1684 0 0 60.1684 0 0 9.1355 0 0 0 0 0 -9.8316 0 0 39.8316 0 0 0 0 0 0 0 0
0 100.5981 8.3333 0 0 5.0000 0 0 0 11.0000 0 0 0 0 -3.0000 4.3301 0 0 8.3694 -2.2335 14.8366 0 0 0 20.5502 -57.7252 -23.9120 0 0 -85.0000 10.2571 12.7897 2.2940 0 0 0 25.5056 67.7313 27.2732 0 0 72.9904 -12.9904 0 0 -32.5000 0 0 62.5000 0 0 8.6603 0 0 0 0 0 -7.5000 0 0 37.5000 0 0 0 0 0 0 0 0
0 100.8532 10.0000 0 0 5.8779 0 0 0 11.5267 0 0 0 0 -3.5267 4.0451 0 0 7.7147 -2.4433 17.4688 0 0 0 23.7190 -56.8979 -27.6766 0 0 -87.6336 12.0167 11.8770 2.5085 0 0 0 29.2387 66.9236 31.3187 0 0 72.1353 -12.1353 0 0 -34.6946 0 0 64.6946 0 0 8.0902 0 0 0 0 0 -5.3054 0 0 35.3054 0 0 0 0 0 0 0 0
0 100.9836 11.6667 0 0 6.6913 0 0 0 12.0148 0 0 0 0 -4.0148 3.7157 0 0 6.9846 -2.5444 19.9186 0 0 0 26.4982 -56.0347 -31.0103 0 0 -90.0739 13.6304 10.8408 2.6113 0 0 0 32.4527 66.0890 34.8229 0 0 71.1472 -11.1472 0 0 -36.7283 0 0 66.7283 0 0 7.4314 0 0 0 0 0 -3.2717 0 0 33.2717 0 0 0 0 0 0 0 0
0 100.9836 13.3333 0 0 7.4314 0 0 0 12.4589 0 0 0 0 -4.4589 3.3457 0 0 6.1952 -2.5335 22.1572 0 0 0 28.8917 -55.1744 -33.9107 0 0 -92.2943 15.0834 9.6978 2.5994 0 0 0 35.1742 65.2650 37.8092 0 0 70.0370 -10.0370 0 0 -38.5786 0 0 68.5786 0 0 6.6913 0 0 0 0 0 -1.4214 0 0 31.4214 0 0 0 0 0 0 0 0
0 100.8532 15.0000 0 0 8.0902 0 0 0 12.8541 0 0 0 0 -4.8541 2.9389 0 0 5.3615 -2.4125 24.1575 0 0 0 30.9130 -54.3533 -36.3852 0 0 -94.2705 16.3635 8.4649 2.4749 0 0 0 37.4383 64.4848 40.3098 0 0 68.8168 -8.8168 0 0 -40.2254 0 0 70.2254 0 0 5.8779 0 0 0 0 0 0.2254 0 0 29.7746 0 0 0 0 0 0 0 0
0 100.5981 16.6667 0 0 8.6603 0 0 0 13.1962 0 0 0 0 -5.1962 2.5000 0 0 4.4969 -2.1881 25.8948 0 0 0 32.5799 -53.6033 -38.4461 0 0 -95.9808 17.4609 7.1581 2.2446 0 0 0 39.2821 63.7771 42.3589 0 0 67.5000 -7.5000 0 0 -41.6506 0 0 71.6506 0 0 5.0000 0 0 0 0 0 1.6506 0 0 28.3494 0 0 0 0 0 0 0 0
0 100.2294 18.3333 0 0 9.1355 0 0 0 13.4813 0 0 0 0 -5.4813 2.0337 0 0 3.6121 -1.8710 27.3474 0 0 0 33.9119 -52.9519 -40.1078 0 0 -97.4064 18.3680 5.7924 1.9193 0 0 0 40.7404 63.1660 43.9887 0 0 66.1010 -6.1010 0 0 -42.8386 0 0 72.8386 0 0 4.0674 0 0 0 0 0 2.8386 0 0 27.1614 0 0 0 0 0 0 0 0
0 99.7634 20.0000 0 0 9.5106 0 0 0 13.7063 0 0 0 0 -5.7063 1.5451 0 0 2.7155 -1.4755 28.4967 0 0 0 34.9269 -52.4218 -41.3840 0 0 -98.5317 19.0790 4.3817 1.5137 0 0 0 41.8428 62.6709 45.2269 0 0 64.6353 -4.6353 0 0 -43.7764 0 0 73.7764 0 0 3.0902 0 0 0 0 0 3.7764 0 0 26.2236 0 0 0 0 0 0 0 0
0 99.2202 21.6667 0 0 9.7815 0 0 0 13.8689 0 0 0 0 -5.8689 1.0396 0 0 1.8125 -1.0187 29.3283 0 0 0 35.6404 -52.0306 -42.2866 0 0 -99.3444 19.5898 2.9385 1.0452 0 0 0 42.6132 62.3067 46.0955 0 0 63.1187 -3.1187 0 0 -44.4537 0 0 74.4537 0 0 2.0791 0 0 0 0 0 4.4537 0 0 25.5463 0 0 0 0 0 0 0 0
0 98.6237 23.3333 0 0 9.9452 0 0 0 13.9671 0 0 0 0 -5.9671 0.5226 0 0 0.9068 -0.5200 29.8315 0 0 0 36.0637 -51.7909 -42.8244 0 0 -99.8357 19.8973 1.4744 0.5336 0 0 0 43.0685 62.0840 46.6103 0 0 61.5679 -1.5679 0 0 -44.8630 0 0 74.8630 0 0 1.0453 0 0 0 0 0 4.8630 0 0 25.1370 0 0 0 0 0 0 0 0
0 98.0000 25.0000 0 0 10.0000 0 0 0 14.0000 0 0 0 0 -6.0000 0 0 0 0 0 30.0000 0 0 0 36.2040 -51.7101 -43.0031 0 0 -100.0000 20.0000 0 0 0 0 0 43.2192 62.0091 46.7808 0 0 60.0000 0 0 0 -45.0000 0 0 75.0000 0 0 0 0 0 0 0 0 5.0000 0 0 25.0000 0 0 0 0 0 0 0 0
0 97.3763 26.6667 0 0 9.9452 0 0 0 13.9671 0 0 0 0 -5.9671 -0.5226 0 0 -0.9068 0.5200 29.8315 0 0 0 36.0637 -51.7909 -42.8244 0 0 -99.8357 19.8973 -1.4744 -0.5336 0 0 0 43.0685 62.0840 46.6103 0 0 58.4321 1.5679 0 0 -44.8630 0 0 74.8630 0 0 -1.0453 0 0 0 0 0 4.8630 0 0 25.1370 0 0 0 0 0 0 0 0
0 96.7798 28.3333 0 0 9.7815 0 0 0 13.8689 0 0 0 0 -5.8689 -1.0396 0 0 -1.8125 1.0187 29.3283 0 0 0 35.6404 -52.0306 -42.2866 0 0 -99.3444 19.5898 -2.9385 -1.0452 0 0 0 42.6132 62.3067 46.0955 0 0 56.8813 3.1187 0 0 -44.4537 0 0 74.4537 0 0 -2.0791 0 0 0 0 0 4.4537 0 0 25.5463 0 0 0 0 0 0 0 0
0 96.2366 30.0000 0 0 9.5106 0 0 0 13.7063 0 0 0 0 -5.7063 -1.5451 0 0 -2.7155 1.4755 28.4967 0 0 0 34.9269 -52.4218 -41.3840 0 0 -98.5317 19.0790 -4.3817 -1.5137 0 0 0 41.8428 62.6709 45.2269 0 0 55.3647 4.6353 0 0 -43.7764 0 0 73.7764 0 0 -3.0902 0 0 0 0 0 3.7764 0 0 26.2236 0 0 0 0 0 0 0 0
0 95.7706 31.6667 0 0 9.1355 0 0 0 13.4813 0 0 0 0 -5.4813 -2.0337 0 0 -3.6121 1.8710 27.3474 0 0 0 33.9119 -52.9519 -40.1078 0 0 -97.4064 18.3680 -5.7924 -1.9193 0 0 0 40.7404 63.1660 43.9887 0 0 53.8990 6.1010 0 0 -42.8386 0 0 72.8386 0 0 -4.0674 0 0 0 0 0 2.8386 0 0 27.1614 0 0 0 0 0 0 0 0
